<svg width="16" height="11" viewBox="0 0 16 11" fill="none" xmlns="http://www.w3.org/2000/svg">
<path d="M9.78281 0.00133352C9.61781 0.0305522 9.48547 0.150865 9.43906 0.310708C9.39265 0.472271 9.44078 0.644146 9.56281 0.757583L13.6053 4.80008H0.611559C0.597809 4.80008 0.58406 4.80008 0.570309 4.80008C0.327966 4.81211 0.138903 5.01836 0.150935 5.26071C0.162966 5.50305 0.369216 5.69211 0.611559 5.68008H13.6053L9.56281 9.72258C9.43218 9.82915 9.37203 9.9993 9.40984 10.1643C9.44765 10.3276 9.57656 10.4565 9.73984 10.4943C9.90484 10.5321 10.075 10.472 10.1816 10.3413L14.9803 5.55633L15.2828 5.24008L14.9803 4.92383L10.1816 0.138834C10.0905 0.0408649 9.95812 -0.00897876 9.82406 0.00133352C9.81031 0.00133352 9.79656 0.00133352 9.78281 0.00133352Z" fill="#6EB441"/>
</svg>
