<svg width="22" height="19" viewBox="0 0 22 19" fill="none" xmlns="http://www.w3.org/2000/svg">
<path fill-rule="evenodd" clip-rule="evenodd" d="M17 15.1997V13.1997C18.6569 13.1997 20 11.8566 20 10.1997C20 8.54285 18.6569 7.19971 17 7.19971C16.9687 7.19981 16.9687 7.19981 16.9375 7.20034L16.0738 7.21788L15.9309 6.36586C15.5303 3.97597 13.4511 2.19971 11 2.19971C9.1924 2.19971 7.5543 3.16614 6.66642 4.70369L6.39066 5.18122L5.83966 5.20285C3.69934 5.28686 2 7.05015 2 9.19971C2 11.0635 3.27477 12.6296 5 13.0737V15.1167C2.16229 14.6407 0 12.1727 0 9.19971C0 6.15848 2.26703 3.63317 5.21989 3.24998C6.50902 1.36478 8.65343 0.199707 11 0.199707C14.1586 0.199707 16.875 2.30533 17.7254 5.25195C20.1431 5.60333 22 7.68467 22 10.1997C22 12.9611 19.7614 15.1997 17 15.1997Z" fill="#6EB441"/>
<path fill-rule="evenodd" clip-rule="evenodd" d="M10 14.453V8.19971H12V14.453L14.2929 12.209L15.7071 13.593L11 18.1997L6.29289 13.593L7.70711 12.209L10 14.453Z" fill="#6EB441"/>
</svg>
