<svg width="16" height="13" viewBox="0 0 16 13" fill="none" xmlns="http://www.w3.org/2000/svg">
<path d="M16 10.4999C16 10.8507 15.9013 11.1759 15.7433 11.462L10.6914 5.80966L15.6885 1.43765C15.8829 1.74614 16 2.10851 16 2.50009V10.4999ZM8.00002 6.83595L14.9533 0.751998C14.668 0.595793 14.3467 0.5 14.0001 0.5H1.99999C1.65296 0.5 1.33155 0.595793 1.04736 0.751998L8.00002 6.83595ZM9.93855 6.46788L8.32905 7.87705C8.23491 7.95906 8.11768 8.00002 8.00002 8.00002C7.8823 8.00002 7.76507 7.95906 7.67093 7.87705L6.06107 6.46782L0.945305 12.1924C1.25194 12.3848 1.61131 12.5 1.99996 12.5H14.0001C14.3886 12.5 14.7482 12.3848 15.0547 12.1924L9.93855 6.46788ZM0.311551 1.43762C0.117194 1.74611 0 2.10847 0 2.50009V10.5C0 10.8507 0.0982006 11.1759 0.256845 11.462L5.30811 5.8087L0.311551 1.43762Z" fill="#929AA2"/>
</svg>
