<svg width="47" height="47" viewBox="0 0 47 47" fill="none" xmlns="http://www.w3.org/2000/svg">
<path d="M19.74 2.82001V12.22H17.86C16.3141 12.22 15.04 13.4942 15.04 15.04V35.72C15.04 37.2659 16.3141 38.54 17.86 38.54H19.7106C19.4646 41.6611 16.8062 44.18 13.63 44.18C10.4538 44.18 7.79539 41.6611 7.54938 38.54H10.34C11.8859 38.54 13.16 37.2659 13.16 35.72V9.40001C13.16 7.85415 11.8859 6.58001 10.34 6.58001H2.82C1.27414 6.58001 0 7.85415 0 9.40001V35.72C0 37.2659 1.27414 38.54 2.82 38.54H5.66937C5.91539 42.7003 9.41102 46.06 13.63 46.06C17.849 46.06 21.3446 42.7003 21.5906 38.54H44.18C45.7259 38.54 47 37.2659 47 35.72V15.04C47 13.4942 45.7259 12.22 44.18 12.22H42.3V2.82001H19.74ZM21.62 4.70001H40.42V15.98H21.62V4.70001ZM2.82 8.46001H10.34C10.8614 8.46001 11.28 8.8786 11.28 9.40001V35.72C11.28 36.2414 10.8614 36.66 10.34 36.66H2.82C2.29859 36.66 1.88 36.2414 1.88 35.72V9.40001C1.88 8.8786 2.29859 8.46001 2.82 8.46001ZM17.86 14.1H19.74V17.86H42.3V14.1H44.18C44.7014 14.1 45.12 14.5186 45.12 15.04V35.72C45.12 36.2414 44.7014 36.66 44.18 36.66H17.86C17.3386 36.66 16.92 36.2414 16.92 35.72V15.04C16.92 14.5186 17.3386 14.1 17.86 14.1ZM25.38 19.74C24.3409 19.74 23.5 20.5809 23.5 21.62C23.5 22.6592 24.3409 23.5 25.38 23.5C26.4191 23.5 27.26 22.6592 27.26 21.62C27.26 20.5809 26.4191 19.74 25.38 19.74ZM31.02 19.74C29.9809 19.74 29.14 20.5809 29.14 21.62C29.14 22.6592 29.9809 23.5 31.02 23.5C32.0591 23.5 32.9 22.6592 32.9 21.62C32.9 20.5809 32.0591 19.74 31.02 19.74ZM36.66 19.74C35.6209 19.74 34.78 20.5809 34.78 21.62C34.78 22.6592 35.6209 23.5 36.66 23.5C37.6991 23.5 38.54 22.6592 38.54 21.62C38.54 20.5809 37.6991 19.74 36.66 19.74ZM25.38 25.38C24.3409 25.38 23.5 26.2209 23.5 27.26C23.5 28.2992 24.3409 29.14 25.38 29.14C26.4191 29.14 27.26 28.2992 27.26 27.26C27.26 26.2209 26.4191 25.38 25.38 25.38ZM31.02 25.38C29.9809 25.38 29.14 26.2209 29.14 27.26C29.14 28.2992 29.9809 29.14 31.02 29.14C32.0591 29.14 32.9 28.2992 32.9 27.26C32.9 26.2209 32.0591 25.38 31.02 25.38ZM36.66 25.38C35.6209 25.38 34.78 26.2209 34.78 27.26C34.78 28.2992 35.6209 29.14 36.66 29.14C37.6991 29.14 38.54 28.2992 38.54 27.26C38.54 26.2209 37.6991 25.38 36.66 25.38ZM25.38 31.02C24.3409 31.02 23.5 31.8609 23.5 32.9C23.5 33.9392 24.3409 34.78 25.38 34.78C26.4191 34.78 27.26 33.9392 27.26 32.9C27.26 31.8609 26.4191 31.02 25.38 31.02ZM31.02 31.02C29.9809 31.02 29.14 31.8609 29.14 32.9C29.14 33.9392 29.9809 34.78 31.02 34.78C32.0591 34.78 32.9 33.9392 32.9 32.9C32.9 31.8609 32.0591 31.02 31.02 31.02ZM36.66 31.02C35.6209 31.02 34.78 31.8609 34.78 32.9C34.78 33.9392 35.6209 34.78 36.66 34.78C37.6991 34.78 38.54 33.9392 38.54 32.9C38.54 31.8609 37.6991 31.02 36.66 31.02Z" fill="url(#paint0_linear_166_1973)"/>
<defs>
<linearGradient id="paint0_linear_166_1973" x1="24.728" y1="50.1406" x2="20.5268" y2="5.79737" gradientUnits="userSpaceOnUse">
<stop stop-color="#1C75BC"/>
<stop offset="1" stop-color="#8DC63F"/>
</linearGradient>
</defs>
</svg>
