<svg width="36" height="36" viewBox="0 0 36 36" fill="none" xmlns="http://www.w3.org/2000/svg">
<rect x="1" y="1" width="34" height="34" rx="17" stroke="white" stroke-width="2"/>
<path d="M18 10C14.1341 10 11 13.1017 11 16.9277C11 21.4836 15.5513 23.6646 16.1215 24.1722C16.7037 24.6905 17.1848 25.8525 17.3789 26.5113C17.4731 26.8312 17.7378 26.9931 18 27C18.2628 26.9924 18.5269 26.8306 18.6211 26.5113C18.8152 25.8525 19.2963 24.6912 19.8785 24.1722C20.4487 23.6646 25 21.4836 25 16.9277C25 13.1017 21.8659 10 18 10ZM18 18.8171C16.9455 18.8171 16.0909 17.9713 16.0909 16.9277C16.0909 15.8842 16.9455 15.0383 18 15.0383C19.0545 15.0383 19.9091 15.8842 19.9091 16.9277C19.9091 17.9713 19.0545 18.8171 18 18.8171Z" fill="white"/>
</svg>
