<svg width="69" height="58" viewBox="0 0 69 58" fill="none" xmlns="http://www.w3.org/2000/svg">
<g clip-path="url(#clip0_457_2607)">
<path d="M67.6779 27.7194C66.7578 22.9637 64.9175 18.5496 62.1045 14.6085C57.4511 8.0399 51.2467 3.57327 43.5175 1.31368C39.5477 0.15761 35.4728 -0.236504 31.3189 0.105062C27.7698 0.394079 24.3521 1.20858 21.0922 2.57485C16.728 4.38777 12.8897 7.0152 9.60347 10.4309C6.84303 13.2948 4.66096 16.5265 3.0047 20.1524C1.55875 23.3578 0.638602 26.6947 0.244253 30.1629C-0.228965 34.104 0.00764437 37.9926 0.875212 41.8287C1.53246 44.7714 2.66293 47.5827 4.08258 50.2627C4.95015 51.918 4.95015 51.8392 6.79045 51.9443C8.68332 52.0494 10.3133 51.445 11.8118 50.3941C12.2325 50.1051 12.6531 49.816 13.1263 49.6321C13.9676 49.2906 14.5197 48.66 15.0718 47.9243C16.0182 46.6369 17.0172 45.3494 18.0688 44.1408C19.4622 42.5118 21.5128 41.8287 23.2217 40.6726C23.2742 40.7251 23.3268 40.7777 23.3794 40.8302C22.4067 41.8812 21.4339 42.9322 20.4612 44.0094C20.4875 44.0357 20.5401 44.0882 20.5664 44.1145C21.171 43.6153 21.7757 43.0898 22.4067 42.6169C23.4846 41.8287 24.3521 40.8828 24.6939 39.6216C25.0094 38.4918 25.7718 37.9401 26.7708 37.5459C27.9801 37.073 29.242 37.073 30.504 37.0993C32.0025 37.1256 33.3433 36.6263 34.5263 35.7593C35.2887 35.1813 35.7882 34.4456 35.5516 33.4472C35.2624 32.186 34.5263 31.1876 33.501 30.4256C32.4231 29.6374 31.1086 29.5848 29.8467 29.7425C27.9013 29.9527 25.9821 30.2942 24.0629 30.5833C21.802 30.9248 19.5936 30.8985 17.4642 29.9527C16.1234 29.3484 14.8877 28.6127 14.2305 27.2201C13.9413 26.6158 13.7047 25.959 13.8624 25.1707C13.9939 25.3021 14.0202 25.3547 14.0465 25.4072C14.099 25.5123 14.1779 25.6174 14.2305 25.6962C15.2821 27.4829 16.8595 28.4813 18.9364 28.455C21.8546 28.4288 24.6413 27.6931 27.3229 26.6158C28.243 26.248 28.2693 25.8276 27.5858 25.0919C27.244 24.7504 26.8497 24.4351 26.5605 24.0672C24.9042 21.9127 25.9821 18.7598 28.6637 18.0504C29.9256 17.7088 31.2664 17.5775 32.5546 17.341C34.316 17.052 36.0511 16.7104 37.6811 16.001C39.4162 15.2391 40.573 14.0567 40.5467 12.0073C40.5467 11.9022 40.5993 11.7709 40.6519 11.6132C41.7561 12.9795 41.7561 15.1865 40.0735 16.474C38.2595 17.8665 36.1037 18.392 33.9742 18.9963C32.8701 19.3116 31.7396 19.6794 30.688 20.1524C29.9256 20.4939 29.7153 21.2296 29.9519 21.9127C30.3462 23.0951 31.0823 23.9884 32.2391 24.5139C33.0278 24.8817 33.8428 25.2496 34.6841 25.4598C36.5506 25.9064 38.0492 26.8523 39.2059 28.4288C40.3101 29.8738 41.8349 30.4519 43.6489 30.0315C45.2 29.6637 46.7774 29.6637 48.3548 29.9001C49.643 30.1103 50.7472 29.7687 51.7725 28.8229C52.8504 27.8245 54.086 26.9837 55.3217 26.1692C55.9 25.7751 56.6362 25.5911 57.2934 25.3284C57.3197 25.3809 57.346 25.4335 57.346 25.486C56.7939 25.9064 56.1892 26.248 55.716 26.7472C54.5067 28.0609 53.3236 29.4009 52.1669 30.7672C51.0101 32.1334 49.643 32.9742 47.7764 32.9479C46.9877 32.9479 46.1728 33.053 45.4104 33.237C44.4376 33.4734 43.4649 33.7887 42.5448 34.1566C42.0452 34.3668 41.7035 34.8134 41.7035 35.3914C41.7035 37.4934 40.5993 38.9122 38.7853 39.8055C37.3393 40.5149 35.8408 41.1455 34.3686 41.8024C33.0015 42.433 31.7659 43.2737 30.7669 44.4298C29.7153 45.6122 29.7941 46.8208 31.0298 47.8192C31.687 48.3447 32.3968 48.7651 33.1067 49.238C33.2118 49.3168 33.317 49.4219 33.4484 49.5533C32.9752 49.7109 32.5809 49.816 32.1865 49.9474C32.1865 50 32.2128 50.0525 32.2128 50.0788C33.133 49.9737 34.0531 49.8949 34.9733 49.7635C36.2615 49.5533 37.5497 49.3957 38.8379 49.8949C39.9158 50.3153 41.0462 50.7094 42.1767 50.9196C44.2273 51.3137 46.3305 51.8129 48.4074 51.8917C53.1133 52.0231 57.8455 51.918 62.5514 51.9443C62.9983 51.9443 63.2612 51.8129 63.4978 51.4188C65.7325 47.609 67.2047 43.5365 67.8619 39.175C68.4929 35.3652 68.414 31.5291 67.6779 27.7194ZM7.92091 25.5649C9.13025 24.9606 10.4185 24.6715 11.733 25.1707C12.5742 25.486 13.1 26.1954 13.0737 27.0362C12.6005 26.8523 12.1273 26.6947 11.6541 26.5107C11.6278 26.5633 11.6278 26.6158 11.6015 26.6421C11.917 26.826 12.2325 26.9837 12.5217 27.1676C13.0737 27.5354 13.0474 27.7194 12.4428 28.0346C11.4963 28.5076 10.5762 28.4288 9.62976 28.0609C8.91993 27.7719 8.2101 27.4566 7.47398 27.1676C7.18479 27.0625 6.84303 27.0362 6.42239 26.9311C6.79045 26.248 7.31625 25.8539 7.92091 25.5649ZM15.729 29.795C15.729 29.8476 15.729 29.9001 15.729 29.9789C14.9666 30.2154 14.2042 30.3731 13.4944 30.7146C12.7583 31.0562 12.0484 31.5029 11.4175 32.0021C10.7865 32.5013 10.287 33.1319 9.70863 33.7099C9.76121 33.7624 9.81379 33.8413 9.86637 33.8938C10.0504 33.7624 10.2344 33.6311 10.4185 33.4997C11.733 32.475 13.1526 31.608 14.7826 31.0562C16.2285 30.5833 16.3337 30.7146 16.2548 32.186C16.0971 35.0762 14.2831 36.495 11.7855 37.3095C9.89266 37.9401 7.92091 38.0452 5.97546 37.5459C5.16047 37.3357 4.37177 37.0467 3.74081 36.2585C5.55482 35.7593 6.08062 34.1828 6.94818 32.8954C8.49929 30.5833 10.5236 29.1644 13.4155 29.4009C14.1779 29.4272 14.9403 29.6637 15.729 29.795ZM19.6199 25.1182C19.0678 25.959 18.2791 26.4319 17.359 26.7998C16.9121 26.9837 16.7543 26.7472 16.728 26.3268C16.6755 25.1707 16.8595 24.0935 17.3853 23.0425C17.4379 22.9637 17.4642 22.8849 17.4904 22.7798C16.4914 23.6468 16.176 24.8555 15.9131 26.248C15.1244 25.2496 15.0192 24.3037 15.3084 23.3053C15.5976 22.3068 16.2022 21.4923 16.9384 20.7829C17.6745 20.0735 18.5683 19.5218 18.9101 18.3132C19.5674 19.0751 19.9091 19.8896 20.1194 20.7041C20.4875 22.228 20.5138 23.7257 19.6199 25.1182ZM21.1185 11.6658C22.0912 11.5081 22.9062 11.7709 23.6949 12.0861C25.2986 12.7167 26.5605 13.7152 27.06 15.4755L21.1185 11.6658ZM39.39 13.1108C37.9703 11.5081 36.1563 10.7199 34.0794 10.536C34.0531 10.5885 34.0268 10.6411 34.0268 10.6673C34.6052 10.9038 35.1836 11.1403 35.7619 11.3767C36.8924 11.8497 37.8914 12.4803 38.759 13.3736C39.1008 13.7151 39.0482 13.9253 38.6538 14.1881C37.4445 14.9238 36.1563 15.0289 34.8155 14.7136C32.6072 14.2144 30.872 13.032 29.7416 11.0089C29.1895 10.0105 29.0843 8.93323 29.2158 7.82971C29.242 7.56696 29.3472 7.3305 29.6627 7.54069C30.3988 8.11872 31.2401 8.06618 32.1076 8.09245C33.1067 8.11872 34.1583 8.09245 35.131 8.30264C37.3131 8.74931 38.6013 10.2469 39.3111 12.2963C39.39 12.5065 39.4425 12.6905 39.4951 12.9006C39.4951 12.9795 39.4425 13.0057 39.39 13.1108ZM40.4941 10.7724C40.4678 10.1156 40.4416 9.53754 40.4153 8.9595C40.3627 8.9595 40.3364 8.9595 40.2838 8.9595C40.2049 9.43244 40.1261 9.93165 40.0472 10.4571C39.3111 10.063 38.8642 9.09087 39.1271 8.2501C39.6529 6.46344 40.8622 5.35992 42.6236 4.80816C42.8339 4.72934 43.0968 4.80816 43.2809 4.80816C43.0443 6.12188 42.8339 7.40932 42.5448 8.64421C42.2819 9.64263 41.6509 10.3783 40.4941 10.7724ZM42.2819 24.2511C41.5457 25.0657 40.757 25.7225 39.6529 26.0115C38.943 26.1954 38.2858 26.1429 37.6285 25.7751C37.2605 25.5649 37.1816 25.3284 37.4708 25.0394C38.2858 24.2249 39.1008 23.4366 39.9158 22.6747C40.0472 22.5433 40.2312 22.4645 40.389 22.3331C40.3627 22.2806 40.3101 22.228 40.2838 22.1755C39.6529 22.6484 38.9956 23.0688 38.3909 23.5943C37.7863 24.1198 37.2342 24.7241 36.6032 25.3284C36.2877 24.33 36.4718 23.4892 36.945 22.701C38.1543 20.7304 40.0209 19.9422 42.2293 20.0473C43.1757 20.0735 44.0959 20.4151 45.016 20.6253C45.2 20.6778 45.3578 20.7829 45.4629 20.8355C44.3588 21.9916 43.3072 23.0951 42.2819 24.2511ZM45.2526 13.8465C44.3062 14.1093 43.4123 13.9253 42.4396 13.2685C43.833 13.0057 44.9897 12.6116 45.8836 11.6395C45.3841 11.8234 44.9108 12.0861 44.385 12.1912C43.7278 12.3489 43.0443 12.4014 42.3607 12.454C41.9401 12.4803 41.7561 12.2963 41.9138 11.8497C42.7025 9.59008 44.6479 8.38147 47.014 8.72303C48.1445 8.88068 49.2487 9.1697 50.3003 9.9842C49.2487 10.3258 48.6966 11.0614 48.1445 11.7709C47.3821 12.743 46.4882 13.5312 45.2526 13.8465ZM55.085 24.6453C53.8494 24.5402 52.719 24.2249 51.7199 23.4366C51.6674 23.3841 51.5885 23.3841 51.5359 23.3578C52.3772 24.4876 53.5602 25.0919 54.901 25.4072C53.7705 26.0903 52.6664 26.1166 51.5622 25.5123C50.642 25.0131 49.9585 24.3037 49.3801 23.4366C48.8806 22.701 48.4074 21.9653 47.5135 21.65C47.5135 21.5974 47.4873 21.5449 47.4873 21.4923C47.9605 21.2822 48.4074 21.0194 48.9069 20.8618C50.5369 20.4151 52.1406 20.3363 53.6654 21.2296C54.7696 21.8602 55.3742 22.8323 55.6371 24.0672C55.7686 24.5664 55.532 24.6978 55.085 24.6453ZM57.0568 24.6453C57.4248 24.1723 57.7666 23.7257 58.1084 23.279C58.0821 23.2527 58.0558 23.2264 58.0295 23.2002C57.6615 23.5417 57.3197 23.8833 56.9253 24.1986C56.6099 24.4613 56.3995 24.3562 56.3207 23.9621C56.1629 23.2264 56.2155 22.517 56.6099 21.8602C56.8202 21.4661 57.1094 21.0982 57.3723 20.7567C57.9769 19.9947 58.5816 19.259 59.2389 18.4708C59.344 18.6022 59.5543 18.7861 59.6595 19.0226C60.343 20.4151 60.3956 22.7798 59.0811 24.1198C58.529 24.6715 57.8981 24.8555 57.0568 24.6453ZM51.5359 41.7498C47.8816 42.0388 44.3062 39.753 42.7551 37.3095C45.4892 36.1534 48.1182 36.7052 50.7735 37.3883C48.3022 35.8381 45.5944 35.7856 42.7025 36.1797C43.3597 34.9448 44.3325 34.3142 45.5944 34.104C48.2497 33.6573 50.6158 34.5244 52.8504 35.8644C53.9546 36.5212 55.085 37.0993 56.2418 37.6773C56.6362 37.8612 57.1357 37.8875 57.6878 38.0189C56.1104 40.1471 54.1912 41.5396 51.5359 41.7498ZM60.0276 30.9774C58.5816 31.0036 57.346 30.5307 56.6362 29.1382C56.2944 28.455 56.4258 28.166 57.162 28.1397C58.1084 28.0872 59.0548 28.1397 60.0276 28.1397C60.2116 28.1397 60.3956 28.1397 60.6059 28.0872C59.16 27.7456 57.714 27.6143 56.1366 27.877C56.2681 27.2201 56.6887 26.8786 57.1357 26.5896C58.529 25.7488 59.975 25.7225 61.4472 26.3005C63.5504 27.115 64.7597 28.7441 65.6273 30.7146C63.7081 30.8197 61.8678 30.9511 60.0276 30.9774Z" fill="url(#paint0_linear_457_2607)"/>
</g>
<defs>
<linearGradient id="paint0_linear_457_2607" x1="35.9301" y1="56.8641" x2="31.7405" y2="3.4151" gradientUnits="userSpaceOnUse">
<stop stop-color="#1C75BC"/>
<stop offset="1" stop-color="#8DC63F"/>
</linearGradient>
<clipPath id="clip0_457_2607">
<rect width="69" height="58" fill="white"/>
</clipPath>
</defs>
</svg>
