<svg width="18" height="18" viewBox="0 0 18 18" fill="none" xmlns="http://www.w3.org/2000/svg">
<path d="M7.53255 0.200195C3.49115 0.200195 0.199219 3.49213 0.199219 7.53353C0.199219 11.5749 3.49115 14.8669 7.53255 14.8669C9.28999 14.8669 10.904 14.2428 12.1689 13.2068L16.5474 17.5854C16.615 17.6557 16.6959 17.7119 16.7855 17.7506C16.875 17.7893 16.9714 17.8098 17.069 17.8108C17.1665 17.8118 17.2633 17.7933 17.3537 17.7564C17.444 17.7195 17.526 17.665 17.595 17.596C17.664 17.527 17.7186 17.445 17.7554 17.3546C17.7923 17.2643 17.8108 17.1675 17.8098 17.07C17.8088 16.9724 17.7884 16.876 17.7497 16.7864C17.7109 16.6969 17.6548 16.6159 17.5844 16.5484L13.2059 12.1699C14.2418 10.9049 14.8659 9.29097 14.8659 7.53353C14.8659 3.49213 11.574 0.200195 7.53255 0.200195ZM7.53255 1.66686C10.7813 1.66686 13.3992 4.28477 13.3992 7.53353C13.3992 10.7823 10.7813 13.4002 7.53255 13.4002C4.2838 13.4002 1.66589 10.7823 1.66589 7.53353C1.66589 4.28477 4.2838 1.66686 7.53255 1.66686Z" fill="#6EB441"/>
</svg>
