<svg width="47" height="47" viewBox="0 0 47 47" fill="none" xmlns="http://www.w3.org/2000/svg">
<g clip-path="url(#clip0_166_1977)">
<path d="M26.3201 0C21.2565 0 17.1367 4.02805 16.9494 9.0475L12.2494 11.1919L1.3513 5.72813C1.18606 5.64735 1.00247 5.61797 0.822549 5.64C0.348877 5.69875 -0.0036235 6.10266 4.83738e-05 6.58V40.42C-0.0036235 40.7835 0.202002 41.114 0.528799 41.2719L11.8088 46.9119C12.0695 47.0367 12.3706 47.0367 12.6313 46.9119L23.5294 41.4481L35.3382 46.9119C35.6026 47.0294 35.9073 47.0184 36.1607 46.8825L46.5007 41.2425C46.8055 41.081 46.9964 40.7652 47.0001 40.42V6.58C46.9964 6.25321 46.8238 5.94844 46.5411 5.77953C46.2583 5.61063 45.9095 5.60328 45.6194 5.7575L35.5732 11.2213C35.6576 10.6081 35.7201 10.0022 35.7201 9.4C35.7201 4.21899 31.5011 0 26.3201 0ZM26.3201 1.88C30.484 1.88 33.8401 5.2361 33.8401 9.4C33.8401 12.892 31.8315 17.2688 29.7569 20.7094C28.0422 23.5514 26.8635 24.9651 26.3201 25.6444C25.784 24.9871 24.6053 23.6322 22.8832 20.7975C20.9151 17.5552 19.0167 13.4391 18.8294 9.95813C18.9212 9.71946 18.9102 9.45508 18.8001 9.22375C18.8955 5.14063 22.2149 1.88 26.3201 1.88ZM26.3201 5.64C23.7351 5.64 21.6201 7.755 21.6201 10.34C21.6201 12.925 23.7351 15.04 26.3201 15.04C28.9051 15.04 31.0201 12.925 31.0201 10.34C31.0201 7.755 28.9051 5.64 26.3201 5.64ZM26.3201 7.52C27.8879 7.52 29.1401 8.77211 29.1401 10.34C29.1401 11.9079 27.8879 13.16 26.3201 13.16C24.7522 13.16 23.5001 11.9079 23.5001 10.34C23.5001 8.77211 24.7522 7.52 26.3201 7.52ZM1.88005 8.1075L11.8088 13.0719C12.0585 13.1894 12.3522 13.1894 12.6019 13.0719L17.0082 11.0744C17.4745 14.8344 19.4206 18.6752 21.2969 21.7669C23.4523 25.3176 25.6151 27.8769 25.6151 27.8769C25.7987 28.0862 26.063 28.2037 26.3421 28.1963C26.6175 28.1927 26.8819 28.0641 27.0544 27.8475C27.0544 27.8475 29.1878 25.2478 31.3432 21.6788C32.8707 19.1452 34.4129 16.1306 35.1913 13.1013L35.6026 13.16C35.7972 13.1784 35.9918 13.138 36.1607 13.0425L45.1201 8.16625V39.8619L35.6907 45.0025L23.8819 39.5681C23.6322 39.4506 23.3385 39.4506 23.0888 39.5681L12.2201 45.0025L1.88005 39.8325V8.1075Z" fill="url(#paint0_linear_166_1977)"/>
</g>
<defs>
<linearGradient id="paint0_linear_166_1977" x1="24.7281" y1="51.4415" x2="19.7713" y2="3.31446" gradientUnits="userSpaceOnUse">
<stop stop-color="#1C75BC"/>
<stop offset="1" stop-color="#8DC63F"/>
</linearGradient>
<clipPath id="clip0_166_1977">
<rect width="47" height="47" fill="white"/>
</clipPath>
</defs>
</svg>
