<svg width="36" height="36" viewBox="0 0 36 36" fill="none" xmlns="http://www.w3.org/2000/svg">
<rect x="1" y="1" width="34" height="34" rx="17" stroke="white" stroke-width="2"/>
<path d="M22.4332 19.6319C21.9634 19.1681 21.3768 19.1681 20.91 19.6319C20.5539 19.9851 20.1978 20.3382 19.8476 20.6973C19.7519 20.796 19.6711 20.817 19.5544 20.7511C19.3239 20.6254 19.0785 20.5237 18.8571 20.386C17.8247 19.7367 16.9598 18.9018 16.1937 17.9621C15.8137 17.4953 15.4755 16.9956 15.2391 16.433C15.1912 16.3193 15.2002 16.2445 15.293 16.1517C15.6491 15.8076 15.9962 15.4544 16.3463 15.1013C16.8341 14.6106 16.8341 14.036 16.3433 13.5423C16.065 13.261 15.7867 12.9857 15.5084 12.7044C15.2211 12.4171 14.9368 12.1268 14.6466 11.8425C14.1767 11.3847 13.5902 11.3847 13.1233 11.8455C12.7642 12.1986 12.4201 12.5607 12.055 12.9078C11.7168 13.228 11.5463 13.6201 11.5104 14.0779C11.4535 14.823 11.636 15.5263 11.8934 16.2115C12.4201 17.63 13.2221 18.8898 14.1947 20.0449C15.5084 21.607 17.0765 22.8429 18.911 23.7346C19.7369 24.1356 20.5928 24.4438 21.5235 24.4947C22.1639 24.5306 22.7205 24.369 23.1664 23.8693C23.4716 23.5281 23.8158 23.2169 24.139 22.8907C24.6178 22.406 24.6208 21.8194 24.1449 21.3406C23.5764 20.7691 23.0048 20.2005 22.4332 19.6319Z" fill="white"/>
</svg>
