<svg width="36" height="37" viewBox="0 0 36 37" fill="none" xmlns="http://www.w3.org/2000/svg">
<rect x="1" y="1.5" width="34" height="34" rx="17" stroke="#0096D7" stroke-width="2"/>
<path d="M22.4333 20.1322C21.9634 19.6684 21.3769 19.6684 20.91 20.1322C20.5539 20.4853 20.1978 20.8384 19.8477 21.1975C19.7519 21.2963 19.6711 21.3172 19.5544 21.2514C19.324 21.1257 19.0786 21.0239 18.8572 20.8863C17.8247 20.2369 16.9599 19.402 16.1938 18.4624C15.8137 17.9956 15.4756 17.4958 15.2391 16.9332C15.1913 16.8195 15.2002 16.7447 15.293 16.6519C15.6491 16.3078 15.9963 15.9547 16.3464 15.6016C16.8342 15.1108 16.8342 14.5363 16.3434 14.0425C16.0651 13.7612 15.7868 13.4859 15.5085 13.2046C15.2212 12.9173 14.9369 12.6271 14.6466 12.3428C14.1768 11.8849 13.5902 11.8849 13.1234 12.3458C12.7643 12.6989 12.4202 13.061 12.0551 13.4081C11.7169 13.7283 11.5463 14.1203 11.5104 14.5781C11.4536 15.3233 11.6361 16.0265 11.8935 16.7118C12.4202 18.1302 13.2222 19.3901 14.1947 20.5451C15.5085 22.1072 17.0766 23.3431 18.911 24.2349C19.737 24.6359 20.5928 24.9441 21.5235 24.995C22.1639 25.0309 22.7205 24.8693 23.1664 24.3695C23.4717 24.0284 23.8158 23.7172 24.139 23.391C24.6178 22.9062 24.6208 22.3197 24.145 21.8409C23.5764 21.2693 23.0048 20.7008 22.4333 20.1322Z" fill="#0096D7"/>
</svg>
