<svg width="47" height="47" viewBox="0 0 47 47" fill="none" xmlns="http://www.w3.org/2000/svg">
<path d="M23.5002 3.76001C16.2482 3.76001 11.5886 4.64126 8.58133 5.66204C5.57407 6.68282 4.16039 7.91657 3.69774 8.32415H3.69407V8.32782C3.11391 8.84189 3.02211 9.44775 2.92297 10.094C2.8275 10.7402 2.80914 11.4563 2.82383 12.1723C2.85688 13.6006 3.02579 14.9849 3.14329 15.6202C3.42602 17.1109 4.61938 18.0363 5.84946 17.8343H5.85313C6.1175 17.7902 6.47367 17.6985 7.02813 17.5626C7.58625 17.4231 8.27289 17.2505 8.96688 17.0742C10.3548 16.7217 11.8052 16.3472 12.132 16.2738C13.1602 16.0424 13.722 15.1795 14.0267 14.2469V14.2506C14.0965 14.0339 14.5959 12.8185 15.0402 11.7757C15.389 10.9606 15.5799 10.5126 15.7121 10.2188C16.2115 10.0793 18.7965 9.40001 23.5002 9.40001C28.2002 9.40001 30.7888 10.0793 31.2882 10.2188C31.4167 10.5126 31.6113 10.9606 31.9601 11.7757C32.4044 12.8185 32.9001 14.0302 32.9736 14.2506C33.2784 15.1759 33.8328 16.0608 34.883 16.2811C35.1547 16.3399 36.6161 16.7144 37.9967 17.0669C38.6907 17.2468 39.3773 17.4231 39.9391 17.5626C40.5009 17.7021 40.8681 17.7939 41.1619 17.8417C42.3773 18.0216 43.5706 17.122 43.857 15.6238C43.9745 14.9886 44.1434 13.6043 44.1765 12.1723C44.1912 11.4563 44.1728 10.7402 44.0773 10.094C43.9782 9.45142 43.8864 8.83821 43.3026 8.32782H43.2989C42.8362 7.91657 41.4262 6.68282 38.419 5.66204C35.408 4.64493 30.7484 3.76001 23.5002 3.76001ZM23.5002 5.64001C30.5979 5.64001 35.0519 6.50657 37.8131 7.44657C40.5744 8.3829 41.5768 9.31189 42.0578 9.73782C41.9476 9.63868 42.1459 9.90673 42.2157 10.3731C42.2855 10.8431 42.3112 11.482 42.2965 12.1319C42.2671 13.4317 42.0909 14.8417 42.0064 15.275C41.8852 15.9139 41.3601 15.969 41.4446 15.98C41.4116 15.9763 40.9379 15.8735 40.3908 15.7377C39.84 15.6018 39.157 15.4256 38.4667 15.2493C37.0861 14.8931 35.7569 14.5443 35.2722 14.4415H35.2685C35.2869 14.4452 34.9344 14.1955 34.7618 13.6631V13.6594C34.5892 13.1527 34.1376 12.0915 33.6896 11.0377C33.238 9.98384 32.823 9.02548 32.823 9.02548L32.6468 8.62157L32.2282 8.49673C32.2282 8.49673 28.9088 7.52001 23.5002 7.52001C18.0915 7.52001 14.7721 8.49673 14.7721 8.49673L14.3535 8.62157L14.1773 9.02548C14.1773 9.02548 13.7623 9.98384 13.3107 11.034C12.8627 12.0878 12.4111 13.1527 12.2385 13.6594V13.6631C12.0659 14.1881 11.7134 14.4415 11.7171 14.4415C11.2618 14.5443 9.88852 14.8968 8.50422 15.2493C7.81024 15.4256 7.12727 15.6018 6.58016 15.734C6.03672 15.8699 5.57039 15.9763 5.54469 15.98C5.61078 15.969 5.11508 15.9249 4.99391 15.275V15.2713C4.90946 14.8381 4.73321 13.4281 4.70383 12.1282C4.68914 11.4783 4.71118 10.8431 4.78094 10.3731C4.85438 9.90306 5.05266 9.63501 4.9425 9.73415C5.42352 9.30821 6.42594 8.37923 9.18719 7.43923C11.9448 6.5029 16.4024 5.64001 23.5002 5.64001ZM16.9202 14.1C16.4024 14.1 15.9802 14.5223 15.9802 15.04V17.4634C15.5616 17.8563 12.4368 20.7975 8.21782 25.7068C5.35008 29.0445 4.69282 32.441 4.70016 34.7837C4.70383 35.8045 4.94618 37.6331 5.18118 39.3111C5.41618 40.9892 5.65118 42.4469 5.65118 42.4469C5.72461 42.9059 6.1175 43.24 6.58016 43.24H11.2802C11.7979 43.24 12.2202 42.8178 12.2202 42.3V41.36H34.7801V42.3C34.7801 42.8178 35.2024 43.24 35.7201 43.24H40.4201C40.8791 43.24 41.272 42.9059 41.3455 42.4506C41.3455 42.4506 41.5841 40.9892 41.8191 39.3148C42.0541 37.6404 42.2965 35.8081 42.3001 34.78C42.3038 32.441 41.6429 29.0372 38.7825 25.7068C34.5635 20.7975 31.4387 17.8563 31.0201 17.4634V15.04C31.0201 14.5223 30.5979 14.1 30.0802 14.1H26.3202C25.8024 14.1 25.3802 14.5223 25.3802 15.04V16.92H21.6202V15.04C21.6202 14.5223 21.1979 14.1 20.6802 14.1H16.9202ZM17.8602 15.98H19.7402V17.86C19.7402 18.3777 20.1624 18.8 20.6802 18.8H26.3202C26.8379 18.8 27.2602 18.3777 27.2602 17.86V15.98H29.1402V17.86C29.1402 18.1207 29.2503 18.3704 29.4412 18.5503C29.4412 18.5503 32.9148 21.7632 37.3541 26.9332C39.9024 29.8964 40.4238 32.7825 40.4201 34.78C40.4201 35.4667 40.1888 37.3981 39.9575 39.0541C39.7849 40.2842 39.6894 40.8717 39.6123 41.36H36.6601V40.42C36.6601 39.9023 36.2379 39.48 35.7201 39.48H11.2802C10.7624 39.48 10.3402 39.9023 10.3402 40.42V41.36H7.38797C7.31453 40.8717 7.21539 40.2805 7.04282 39.0504C6.81149 37.3907 6.58383 35.463 6.58016 34.7763C6.57282 32.7825 7.09055 29.9074 9.64617 26.9332C14.0855 21.7632 17.5591 18.5503 17.5591 18.5503C17.75 18.3704 17.8602 18.1207 17.8602 17.86V15.98ZM15.9802 23.5V25.38H19.7402V23.5H15.9802ZM21.6202 23.5V25.38H25.3802V23.5H21.6202ZM27.2602 23.5V25.38H31.0201V23.5H27.2602ZM15.9802 27.26V29.14H19.7402V27.26H15.9802ZM21.6202 27.26V29.14H25.3802V27.26H21.6202ZM27.2602 27.26V29.14H31.0201V27.26H27.2602ZM15.9802 31.02V32.9H19.7402V31.02H15.9802ZM21.6202 31.02V32.9H25.3802V31.02H21.6202ZM27.2602 31.02V32.9H31.0201V31.02H27.2602Z" fill="url(#paint0_linear_166_1975)"/>
<defs>
<linearGradient id="paint0_linear_166_1975" x1="24.5809" y1="46.9658" x2="20.6038" y2="6.50598" gradientUnits="userSpaceOnUse">
<stop stop-color="#1C75BC"/>
<stop offset="1" stop-color="#8DC63F"/>
</linearGradient>
</defs>
</svg>
